<svg
  version="1.1"
  xmlns="http://www.w3.org/2000/svg"
  xmlns:xlink="http://www.w3.org/1999/xlink"
  width="500"
  height="60"
  viewBox="0 22 500 40"
  aria-hidden="true"
>
  <path fill="#FF3E41" d="M165.646,42.169c0.309,0.542,0.473,1.122,0.493,1.74c0.019,0.619-0.126,1.199-0.435,1.74
    c-0.348,0.696-0.841,1.17-1.479,1.421c-0.638,0.252-1.344,0.281-2.117,0.087c-0.348-0.077-0.658-0.212-0.928-0.406
    c-0.271-0.193-0.551-0.396-0.841-0.609c-0.29-0.212-0.619-0.415-0.986-0.609c-0.368-0.193-0.841-0.328-1.421-0.406
    c-0.58-0.077-1.209-0.077-1.885,0c-0.677,0.078-1.286,0.232-1.827,0.464c-0.851,0.426-1.528,1.073-2.03,1.943
    c-0.503,0.87-0.832,1.798-0.986,2.784c-0.155,0.986-0.126,1.982,0.087,2.987c0.212,1.006,0.628,1.856,1.247,2.552
    c0.464,0.542,1.073,0.986,1.827,1.334c0.754,0.348,1.479,0.561,2.175,0.639c0.657,0.077,1.314,0.067,1.972-0.029
    c0.657-0.096,1.295-0.241,1.914-0.436c0.464-0.193,0.986-0.453,1.566-0.783c0.58-0.328,1.14-0.531,1.682-0.608
    c0.696,0,1.237,0.185,1.624,0.551c0.386,0.368,0.657,0.812,0.812,1.334c0.154,0.522,0.183,1.073,0.087,1.653
    c-0.097,0.58-0.319,1.082-0.667,1.508c-0.464,0.58-1.122,1.131-1.972,1.652c-0.851,0.522-1.663,0.899-2.436,1.132
    c-0.928,0.31-1.963,0.483-3.103,0.522c-1.141,0.038-2.214,0-3.219-0.117c-0.464-0.076-0.948-0.174-1.45-0.289
    c-0.503-0.116-0.986-0.252-1.45-0.406c-1.702-0.618-3.123-1.498-4.263-2.639c-1.141-1.141-2.011-2.427-2.61-3.857
    c-0.6-1.43-0.938-2.958-1.015-4.582c-0.078-1.624,0.116-3.228,0.58-4.814c0.425-1.508,0.957-2.784,1.595-3.828
    s1.392-1.904,2.262-2.581c0.87-0.676,1.846-1.218,2.929-1.624c1.082-0.406,2.281-0.763,3.596-1.073
    c1.353-0.27,2.784-0.27,4.292,0c1.508,0.271,2.861,0.774,4.06,1.508C164.254,40.526,165.027,41.242,165.646,42.169z"/>
  <path fill="#00C9A7" d="M170.923,43.967c0-0.464,0-0.995,0-1.595c0-0.599,0.019-1.218,0.058-1.856
    c0.038-0.638,0.106-1.256,0.203-1.856c0.096-0.599,0.241-1.131,0.435-1.595c0.309-0.696,0.792-1.169,1.45-1.421
    c0.657-0.251,1.372-0.357,2.146-0.319c0.812,0,1.45,0.136,1.914,0.406c0.464,0.271,0.812,0.629,1.044,1.073
    c0.232,0.445,0.377,0.948,0.435,1.508c0.058,0.561,0.087,1.151,0.087,1.769c0.348-0.618,0.821-1.121,1.421-1.508
    c0.599-0.386,1.208-0.696,1.827-0.928c0.618-0.232,1.179-0.396,1.682-0.493c0.502-0.096,0.792-0.145,0.87-0.145
    c0.966-0.077,1.846-0.096,2.639-0.058c0.792,0.039,1.672,0.213,2.639,0.522c0.618,0.232,1.256,0.551,1.914,0.957
    c0.657,0.406,1.237,0.88,1.74,1.421c0.502,0.542,0.841,1.131,1.015,1.769c0.174,0.638,0.087,1.305-0.261,2.001
    c-0.542,0.967-1.141,1.441-1.798,1.421c-0.658-0.019-1.373-0.125-2.146-0.319c-0.426-0.077-0.928-0.251-1.508-0.522
    c-0.58-0.27-1.083-0.444-1.508-0.522c-1.315-0.193-2.475-0.096-3.48,0.29c-1.006,0.387-1.876,0.851-2.61,1.392
    c-0.851,0.658-1.586,1.412-2.204,2.262v8.352c0,1.044-0.01,2.127-0.029,3.248c-0.02,1.122-0.174,2.137-0.464,3.045
    c-0.29,0.909-0.774,1.644-1.45,2.204c-0.677,0.561-1.653,0.802-2.929,0.725c-0.696-0.039-1.315-0.377-1.856-1.015
    c-0.542-0.638-0.87-1.267-0.986-1.886c-0.078-0.58-0.136-1.275-0.174-2.088c-0.039-0.812-0.068-1.662-0.087-2.552
    c-0.02-0.889-0.029-1.788-0.029-2.696s0-1.75,0-2.523V43.967z"/>
  <path fill="#E18AD4" d="M202.475,40.082c1.16-0.58,2.378-0.995,3.654-1.247c1.276-0.251,2.542-0.309,3.799-0.174
    c1.256,0.136,2.465,0.464,3.625,0.986s2.242,1.267,3.248,2.233c1.005,1.006,1.778,2.108,2.32,3.306
    c0.541,1.199,0.928,2.533,1.16,4.002c0.154,1.006,0.406,1.934,0.754,2.784s0.725,1.702,1.131,2.552
    c0.406,0.852,0.792,1.702,1.16,2.553c0.367,0.85,0.667,1.739,0.899,2.668c0.193,0.889,0.125,1.75-0.203,2.58
    c-0.329,0.832-0.996,1.344-2.001,1.537c-0.58,0.116-1.131,0.068-1.653-0.145s-0.996-0.522-1.421-0.928
    c-0.426-0.406-0.803-0.851-1.131-1.334c-0.329-0.483-0.629-0.938-0.899-1.363c-0.89,1.16-1.856,2.059-2.9,2.697
    c-1.044,0.637-2.301,1.053-3.77,1.246c-1.238,0.155-2.417,0.194-3.538,0.116c-1.122-0.077-2.32-0.29-3.596-0.638
    c-1.663-0.426-3.026-1.17-4.089-2.233c-1.064-1.063-1.875-2.3-2.436-3.712c-0.561-1.41-0.861-2.929-0.899-4.553
    c-0.039-1.624,0.154-3.228,0.58-4.814c0.541-2.088,1.353-3.789,2.436-5.104C199.787,41.784,201.044,40.777,202.475,40.082z
     M203.925,46.868c-0.542,0.542-0.967,1.18-1.276,1.914c-0.31,0.735-0.493,1.508-0.551,2.32c-0.058,0.813,0.009,1.624,0.203,2.436
    c0.193,0.813,0.502,1.528,0.928,2.146c0.386,0.542,1.044,0.996,1.972,1.363c0.928,0.367,1.894,0.59,2.9,0.666
    c1.16,0.078,2.175-0.231,3.045-0.928c0.87-0.695,1.527-1.574,1.972-2.639c0.444-1.063,0.647-2.204,0.609-3.422
    c-0.039-1.218-0.368-2.329-0.986-3.335c-0.464-0.734-1.073-1.276-1.827-1.624c-0.754-0.348-1.557-0.531-2.407-0.551
    c-0.851-0.019-1.692,0.116-2.523,0.406C205.152,45.911,204.466,46.327,203.925,46.868z"/>
  <path fill="#0081A7" d="M247.135,23.958c0.734-0.193,1.382-0.222,1.943-0.087c0.56,0.136,1.044,0.397,1.449,0.783
    c0.406,0.387,0.716,0.87,0.929,1.45c0.212,0.58,0.318,1.218,0.318,1.914c0.038,1.934,0.049,3.442,0.029,4.524
    c-0.02,1.083-0.029,2.03-0.029,2.842v17.806c0,2.088,0,3.828,0,5.221c0,1.391-0.067,2.522-0.203,3.393
    c-0.136,0.869-0.367,1.518-0.695,1.943c-0.329,0.426-0.822,0.725-1.479,0.898s-1.518,0.261-2.581,0.261s-2.388,0-3.973,0
    c-4.176,0-7.473-0.985-9.889-2.958c-2.417-1.972-3.703-5.104-3.857-9.396c-0.078-1.855,0.154-3.556,0.696-5.103
    c0.541-1.546,1.343-2.871,2.407-3.973c1.063-1.102,2.378-1.952,3.943-2.552c1.566-0.599,3.354-0.879,5.365-0.841h3.19V29.7
    c0-0.618,0-1.227,0-1.827c0-0.599,0.058-1.16,0.174-1.682c0.115-0.522,0.348-0.976,0.695-1.363
    C245.917,24.441,246.438,24.151,247.135,23.958z M237.043,56.147c0.812,1.122,2.281,1.74,4.408,1.856
    c0.425,0.039,0.831,0.049,1.218,0.029c0.386-0.02,0.733-0.068,1.044-0.146c0.348-0.038,0.676-0.097,0.986-0.175V46.983
    c-1.354-0.232-2.581-0.377-3.684-0.435c-1.102-0.058-2.194,0.339-3.277,1.189c-0.579,0.464-1.024,1.054-1.334,1.769
    c-0.31,0.716-0.483,1.47-0.521,2.262c-0.039,0.793,0.038,1.575,0.232,2.349C236.308,54.892,236.617,55.567,237.043,56.147z"/>
  <path fill="#F1D302" d="M280.311,50.695c-0.078,1.276-0.155,2.563-0.232,3.857c-0.078,1.296-0.28,2.543-0.608,3.74
    c-0.329,1.199-0.832,2.283-1.509,3.248c-0.677,0.967-1.634,1.74-2.87,2.32c-1.083,0.542-2.243,0.918-3.48,1.131
    c-1.238,0.213-2.475,0.299-3.712,0.262c-1.238-0.039-2.437-0.223-3.596-0.551c-1.16-0.328-2.204-0.783-3.133-1.363
    c-0.928-0.58-1.682-1.334-2.262-2.262c-0.58-0.929-1.035-1.934-1.363-3.017c-0.328-1.082-0.551-2.204-0.667-3.364
    c-0.115-1.16-0.193-2.242-0.231-3.248c-0.155-2.667-0.155-5.297,0-7.888c0-0.502,0-1.073,0-1.711
    c0-0.638,0.048-1.266,0.145-1.885c0.097-0.618,0.262-1.189,0.493-1.711c0.232-0.522,0.618-0.918,1.16-1.189
    c1.16-0.618,2.233-0.657,3.219-0.116c0.986,0.542,1.575,1.663,1.77,3.364c0.116,0.89,0.164,1.876,0.145,2.958
    c-0.02,1.083,0.009,2.069,0.087,2.958c0.038,1.315,0.077,2.736,0.116,4.263c0.038,1.528,0.261,2.89,0.667,4.089
    c0.406,1.198,1.082,2.098,2.03,2.696c0.947,0.601,2.368,0.629,4.263,0.087c0.889-0.27,1.479-0.947,1.77-2.029
    s0.435-2.688,0.435-4.814c0-0.928-0.02-1.952-0.058-3.074c-0.039-1.121-0.059-2.233-0.059-3.335c0-1.102,0.029-2.126,0.087-3.074
    c0.059-0.947,0.164-1.672,0.319-2.175c0.193-0.696,0.599-1.218,1.218-1.566c0.618-0.348,1.276-0.531,1.973-0.551
    c0.695-0.019,1.353,0.126,1.972,0.435c0.618,0.31,1.044,0.812,1.275,1.508c0.232,0.619,0.396,1.402,0.493,2.349
    c0.097,0.948,0.164,1.972,0.203,3.074c0.038,1.102,0.048,2.224,0.029,3.364C280.377,48.618,280.349,49.69,280.311,50.695z"/>
  <path fill="#6A7FDB" d="M293.998,59.859c-0.039,0.193-0.068,0.377-0.087,0.551c-0.021,0.174-0.029,0.358-0.029,0.551
    l-0.348,1.219c-0.078,0.154-0.137,0.252-0.174,0.29l-0.175,0.348c-0.193,0.427-0.542,0.774-1.044,1.044
    c-0.928,0.465-1.914,0.58-2.958,0.348c-0.657-0.076-1.18-0.27-1.565-0.58c-0.388-0.27-0.658-0.599-0.813-0.985
    c-0.154-0.386-0.271-0.772-0.348-1.16c-0.116-0.386-0.174-0.733-0.174-1.044v-32.48c0-0.27,0.009-0.512,0.028-0.725
    c0.02-0.212,0.049-0.415,0.087-0.609c0.038-0.27,0.088-0.502,0.146-0.696c0.058-0.193,0.125-0.406,0.203-0.638
    c0.116-0.386,0.328-0.696,0.638-0.928c0.464-0.348,0.908-0.541,1.334-0.58c0.271-0.077,0.522-0.125,0.754-0.145
    c0.232-0.019,0.502-0.029,0.813-0.029c0.541,0,1.16,0.155,1.855,0.464c0.541,0.31,0.929,0.735,1.16,1.276
    c0.386,0.774,0.58,1.489,0.58,2.146c0.038,0.387,0.067,0.967,0.087,1.74c0.02,0.774,0.029,1.354,0.029,1.74v0.232
    c0.077,1.238,0.116,2.427,0.116,3.567c0,1.141-0.021,2.388-0.059,3.741c0,1.315-0.01,2.581-0.028,3.799
    c-0.021,1.218-0.029,2.427-0.029,3.625v12.18c0,0.155,0.009,0.301,0.029,0.436c0.019,0.136,0.028,0.281,0.028,0.436
    C294.056,59.377,294.036,59.666,293.998,59.859z"/>
  <path fill="#FFA843" d="M305.54,40.082c1.159-0.58,2.378-0.995,3.653-1.247c1.276-0.251,2.542-0.309,3.799-0.174
    c1.257,0.136,2.466,0.464,3.625,0.986c1.16,0.522,2.242,1.267,3.248,2.233c1.006,1.006,1.778,2.108,2.32,3.306
    c0.541,1.199,0.928,2.533,1.16,4.002c0.154,1.006,0.406,1.934,0.754,2.784s0.725,1.702,1.131,2.552
    c0.406,0.852,0.792,1.702,1.16,2.553c0.367,0.85,0.667,1.739,0.899,2.668c0.192,0.889,0.125,1.75-0.203,2.58
    c-0.329,0.832-0.996,1.344-2.001,1.537c-0.58,0.116-1.131,0.068-1.653-0.145s-0.996-0.522-1.421-0.928
    c-0.426-0.406-0.803-0.851-1.131-1.334c-0.329-0.483-0.629-0.938-0.899-1.363c-0.89,1.16-1.855,2.059-2.899,2.697
    c-1.045,0.637-2.302,1.053-3.771,1.246c-1.238,0.155-2.417,0.194-3.538,0.116c-1.122-0.077-2.32-0.29-3.596-0.638
    c-1.663-0.426-3.026-1.17-4.089-2.233c-1.064-1.063-1.876-2.3-2.437-3.712c-0.561-1.41-0.86-2.929-0.898-4.553
    c-0.039-1.624,0.153-3.228,0.58-4.814c0.541-2.088,1.353-3.789,2.436-5.104C302.852,41.784,304.108,40.777,305.54,40.082z
     M306.989,46.868c-0.542,0.542-0.967,1.18-1.275,1.914c-0.311,0.735-0.493,1.508-0.552,2.32c-0.058,0.813,0.01,1.624,0.203,2.436
    c0.193,0.813,0.502,1.528,0.929,2.146c0.386,0.542,1.044,0.996,1.972,1.363s1.894,0.59,2.9,0.666
    c1.159,0.078,2.175-0.231,3.045-0.928c0.87-0.695,1.526-1.574,1.972-2.639c0.444-1.063,0.647-2.204,0.609-3.422
    c-0.039-1.218-0.368-2.329-0.986-3.335c-0.464-0.734-1.073-1.276-1.827-1.624c-0.754-0.348-1.557-0.531-2.407-0.551
    c-0.851-0.019-1.691,0.116-2.522,0.406C308.217,45.911,307.53,46.327,306.989,46.868z"/>
</svg>
